<?xml version="1.0" encoding="utf-8" ?><!-- created by svgstack.com | Attribution is required. --><svg xmlns="http://www.w3.org/2000/svg" xmlns:xlink="http://www.w3.org/1999/xlink" width="1024" height="1024" viewBox="0 0 1024 1024"><defs><linearGradient id="gradient_0" gradientUnits="userSpaceOnUse" x1="296.06467" y1="205.16229" x2="147.61137" y2="378.11578"><stop offset="0" stop-color="#AB55E6"/><stop offset="1" stop-color="#3A91ED"/></linearGradient></defs><path fill="url(#gradient_0)" transform="scale(2 2)" d="M104.594 204.366C125.472 103.897 255.994 120.109 262.487 203.252C277.662 206.478 276.02 215.755 276.02 228.475C276.021 239.29 278.716 256.091 268.439 261.838C263.758 264.457 255.022 263.308 249.515 263.482C247.012 282.328 236.99 301.273 220.287 311.119L220.287 331.753L237.89 331.742C265.452 331.75 286.439 339.598 299.489 365.581C306.506 379.551 305.138 392.705 305.224 407.697C305.299 417.178 305.792 428.889 305.214 438.146C302.879 441.776 300.701 441.499 296.736 441.242C284.526 441.595 270.561 441.239 258.181 441.24L111.071 441.244C98.7373 441.244 86.3801 441.312 74.0675 441.145C62.256 440.986 65.6634 427.665 65.6591 418.327L65.6615 399.43C65.6851 367.559 80.9964 339.319 115.009 333.138C121.695 331.199 141.447 331.746 149.197 331.753C149.208 326.493 149.555 316.662 149.197 311.838C131.979 299.774 123.471 284.289 121.131 263.482C97.1437 263.579 94.7425 261.166 94.7425 236.48L94.717 220.001C94.751 212.268 97.7254 207.815 104.594 204.366ZM76.2531 430.014L100.16 430.028C103.363 430.032 109.113 430.227 112.176 430.014L112.185 394.299C112.183 389.099 112.008 383.77 112.289 378.576C112.594 372.96 122.232 372.658 122.567 378.455C122.783 383.807 122.682 389.279 122.68 394.651L122.665 430.014L236.766 430.02C238.699 430.02 248.96 430.863 249.515 429.34C249.346 428.076 249.478 425.141 249.492 423.759L249.511 391.102C249.516 385.558 247.881 378.261 252.608 375.289C263.958 374.645 260.53 387.759 260.529 396.723L260.518 430.014L294.246 430.014L294.258 401.712C294.258 395.284 294.588 387.998 293.556 381.761C290.156 361.197 271.046 344.4 250.355 342.962C244.518 342.557 238.249 342.736 232.366 342.74L149.106 342.743C138.029 342.743 125.794 342.121 115.009 343.935C100.888 347.614 90.4016 355.243 82.7689 367.737C75.5532 379.548 76.2395 389.769 76.2403 402.912L76.2531 430.014ZM135.573 213.983L131.655 213.983L131.648 245.796C131.651 262.24 130.544 274.828 141.182 288.984C169.622 327.914 231.476 312.183 238.099 265.395C240.011 251.887 239.337 228.22 238.966 213.983L235.257 213.983C228.435 233.545 233.087 230.49 210.947 230.487L160.317 230.482C137.195 230.485 142.163 233.428 135.573 213.983ZM249.515 252.749C252.516 252.768 262.335 253.216 264.269 252.122C265.556 250.148 266.37 215.769 263.921 214.662C261.265 213.462 252.184 213.986 249.515 213.983L249.503 239.875C249.501 243.736 249.331 248.988 249.515 252.749ZM147.477 177.565C148.91 181.151 151.295 184.147 152.546 187.567C148.614 189.89 144.12 191.195 141.182 194.264C141.323 198.405 146.81 214.903 148.291 220.004L188.685 220.004L222.472 220.004C225.199 213.109 228.685 201.566 230.927 194.264C226.123 191.775 221.968 189.69 216.956 187.567C218.372 184.394 220.368 180.347 222.472 177.565C238.996 186.625 245.91 185.808 238.966 203.252C243.034 203.307 248.677 203.497 252.608 203.252C251.118 198.007 250.345 192.732 248.365 187.542C238.825 162.539 209.113 142.358 182.172 145.234C153.488 145.707 128.812 165.153 118.938 191.528C117.488 195.403 116.465 199.42 115.009 203.252L131.655 203.252C130.506 190.088 123.184 189.252 140.595 181.492C142.395 180.69 145.747 178.64 147.477 177.565ZM121.131 252.749L121.131 213.983C117.549 213.979 113.245 213.854 109.726 213.983C107.26 214.347 105.902 215.029 105.729 217.804C105.532 220.977 104.307 251.088 107.048 252.355C109.491 253.484 114.857 252.913 117.588 252.749L121.131 252.749ZM159.784 316.989C159.733 320.764 159.765 324.537 159.784 328.313L159.784 331.753C176.264 331.752 193.046 331.581 209.499 331.753C209.503 330.202 209.664 317.211 209.499 316.989C191.433 323.066 177.984 323.999 159.784 316.989Z"/><path fill="#319AE9" transform="scale(2 2)" d="M211.718 406.262L225.123 406.222C231.631 406.207 244.335 407.725 235.257 416.995C234.184 417.091 233.113 417.026 232.034 416.995C228.291 416.992 210.462 417.698 208.285 416.373C203.717 413.593 205.717 406.995 211.718 406.262Z"/><path fill="#319AE9" transform="scale(2 2)" d="M137.182 409.198L151.844 409.176C157.076 409.184 164.254 407.755 163.947 414.893C163.845 417.261 162.966 418.175 161.355 419.675C158.899 420.045 136.243 420.652 135.514 417.051C134.928 414.154 134.817 411.122 137.182 409.198Z"/><defs><linearGradient id="gradient_1" gradientUnits="userSpaceOnUse" x1="182.69653" y1="374.03174" x2="74.354347" y2="448.15344"><stop offset="0" stop-color="#379EEB"/><stop offset="1" stop-color="#01C8E7"/></linearGradient></defs><path fill="url(#gradient_1)" transform="scale(2 2)" d="M296.736 441.242C284.526 441.595 270.561 441.239 258.181 441.24L111.071 441.244C98.7373 441.244 86.3801 441.312 74.0675 441.145C62.256 440.986 65.6634 427.665 65.6591 418.327L65.6615 399.43C65.6851 367.559 80.9964 339.319 115.009 333.138L115.206 333.446C113.493 334.534 111.872 333.252 111.267 336.416C109.531 345.487 113.5 343.017 115.009 343.935C100.888 347.614 90.4016 355.243 82.7689 367.737C75.5532 379.548 76.2395 389.769 76.2403 402.912L76.2531 430.014L100.16 430.028C103.363 430.032 109.113 430.227 112.176 430.014L112.185 394.299C112.183 389.099 112.008 383.77 112.289 378.576C112.594 372.96 122.232 372.658 122.567 378.455C122.783 383.807 122.682 389.279 122.68 394.651L122.665 430.014L236.766 430.02C238.699 430.02 248.96 430.863 249.515 429.34L250.004 429.983L249.925 430.41C244.78 432.017 228.716 429.882 221.179 430.581C222.002 431.555 219.685 437.527 220.226 440.365C223.472 442.295 294.895 440.06 296.736 441.242Z"/><path fill="#6670EB" transform="scale(2 2)" d="M172.359 273.326C179.723 273.536 176.701 280.296 178.96 284.626C180.745 288.046 185.792 288.515 188.861 286.616C194.069 283.394 189.539 270.704 199.813 273.827C204.342 275.959 202.864 283.563 201.62 287.315C193.917 305.039 167.708 300.059 167.172 281.1C167.048 276.721 167.812 274.497 172.359 273.326Z"/><path fill="#BE4DE4" transform="scale(2 2)" d="M182.172 166.132C191.593 165.98 200.584 167.049 209.499 170.252C206.572 173.845 206.094 175.929 203.869 179.947C197.93 177.734 192.489 176.769 186.187 176.745C177.712 176.58 173.237 177.349 165.285 179.947C163.398 176.316 162.108 173.647 159.784 170.252C166.586 167.843 174.991 166.548 182.172 166.132Z"/><path fill="#BE4DE4" transform="scale(2 2)" d="M292.622 70.3157C301.54 70.0338 312.29 70.3158 321.329 70.3157L409.323 70.3148C427.956 70.3038 445.905 72.0428 445.626 96.1144L445.674 160.905C445.674 184.265 438.388 191.965 413.932 191.788C410.646 192.035 403.282 191.8 399.668 191.797L369.509 191.779C355.642 191.775 358.283 189.617 348.894 198.507L328.545 217.58C325.825 220.105 313.323 233.934 311.3 222.635C310.586 218.643 310.75 213.889 310.747 209.785L310.758 191.788C302.366 191.481 294.118 193.043 286.444 188.744C271.31 180.265 273.588 165.567 273.58 150.731L273.582 101.864C273.591 86.7873 274.658 75.1055 292.622 70.3157ZM321.285 209.77C326.639 204.474 348.546 181.301 355.472 181.322C362.665 181.174 369.861 181.239 377.053 181.24L417.705 181.273C419.445 181.283 421.201 181.321 422.938 181.25C430.382 181.23 434.981 175.39 435.001 168.235L435.039 102.026C435.031 83.151 432.744 80.6696 412.385 80.719L306.204 80.7306L305.724 80.7742C286.545 82.3883 284.463 81.0487 284.473 102.976L284.476 152.417C284.466 171.373 282.415 181.372 304.612 181.277L313.905 181.238C318 181.227 320.894 181.034 321.109 186.234C321.433 194.057 321.296 201.936 321.285 209.77Z"/><path fill="#E82EE5" transform="scale(2 2)" d="M338.115 125.486L396.87 125.48C401.125 125.478 408.435 124.094 408.402 130.37C408.367 136.981 400.527 135.681 395.657 135.684L381.812 135.677L322.593 135.695C320.374 135.697 317.775 135.832 315.7 135.626C311.5 135.208 304.934 125.571 322.821 125.484L338.115 125.486Z"/><path fill="#E82EE5" transform="scale(2 2)" d="M357.35 107.197L387.039 107.189C394.805 107.188 406.638 104.316 408.638 112.469C407.878 115.411 407.348 116.527 404.309 117.246L360.252 117.205C352.389 117.122 350.373 109.847 357.35 107.197Z"/><path fill="#E82EE5" transform="scale(2 2)" d="M367.712 143.469C372.79 143.409 403.396 142.864 405.932 144.176C410.15 146.359 408.336 152.208 404.309 153.341C400.68 153.652 369.017 153.582 367.076 152.91C361.941 151.131 363.793 145.32 367.712 143.469Z"/><path fill="#E82EE5" transform="scale(2 2)" d="M315.623 143.469C323.918 142.862 344.837 142.851 351.45 144.139C354.284 144.691 355.846 151.882 349.955 153.341C344.887 153.395 315.527 153.957 313.472 152.487C309.864 149.906 311.043 144.158 315.623 143.469Z"/><path fill="#E82EE5" transform="scale(2 2)" d="M323.889 107.197C327.191 107.233 337.579 106.397 338.976 108.34C346.439 118.717 331.782 117.346 328.095 117.246C324.815 117.229 314.28 118.029 312.936 115.827C306.808 105.786 320.283 107.135 323.889 107.197Z"/><path fill="#E82EE5" transform="scale(2 2)" d="M292.622 70.3157C301.54 70.0338 312.29 70.3158 321.329 70.3157L409.323 70.3148C427.956 70.3038 445.905 72.0428 445.626 96.1144L445.674 160.905C445.674 184.265 438.388 191.965 413.932 191.788C418.7 190.963 423.887 191.642 428.376 190.389C436.432 188.141 445.333 179.34 442.449 170.381C440.924 165.643 443.238 167.816 438.256 165.484L437.973 165.348C437.512 166.027 437.181 166.599 436.773 167.312L436.348 167.396C435.411 166.457 435.732 164.309 435.631 162.749C434.476 163.719 440.298 185.304 415.853 181.673C417.101 181.647 422.191 181.711 422.938 181.25C430.382 181.23 434.981 175.39 435.001 168.235L435.039 102.026C435.031 83.151 432.744 80.6696 412.385 80.719L306.204 80.7306C308.524 80.1634 311.465 80.2276 313.876 80.2261L326.314 80.2576C328.249 80.2624 332.574 80.7369 333.774 79.4341C333.752 79.2496 331.641 73.9468 331.417 73.5506C330.146 73.0235 330.403 73.129 330.008 71.8781C320.208 69.927 296.512 71.6842 292.622 70.3157Z"/></svg>